<!-- TODO: can change the fill of these things dynamicly, would look very cool...  -->
<svg xmlns="http://www.w3.org/2000/svg" version="1.1" xmlns:xlink="http://www.w3.org/1999/xlink"
    xmlns:svgjs="http://svgjs.dev/svgjs" viewBox="0 0 11.907323956092142 11.89276222201926">
    <g transform="matrix(1,0,0,1,0.9916700346866962,9.836092187332564)">
        <g clip-path="url(#SvgjsClipPath1002)">
            <g clip-path="url(#SvgjsClipPath10008e788be9-b9b5-4da9-a4f6-8f6575467272)">
                <path
                    d=" M 8.491985956566984 -4.547303578983062 C 9.659739538043697 -5.715057160459774 9.361510961785703 -7.181594334155263 8.478295562867796 -8.064254717112393 C 7.729949042418919 -8.812416232241008 6.562380466262466 -9.140985681021528 5.512845284431446 -8.51270761342094 L 6.0308601811574905 -7.994692716694896 C 6.684113966993085 -8.29569637275678 7.413034928814735 -8.142696972902337 7.984886373736236 -7.571400543941612 C 8.733232894185113 -6.822869018172476 8.763573766707639 -5.805524762066575 7.998576767435424 -5.040527762794365 L 6.972537261277336 -4.014488256636275 C 6.548249625535454 -4.226343379267023 6.036018385196473 -4.143119772654856 5.700625684494637 -3.807837313906637 C 5.270317117704596 -3.377523027654348 5.270317117704596 -2.679851787614819 5.700625684494637 -2.249537501362533 C 5.907221886500412 -2.042805184118401 6.187508176099329 -1.9266527284092279 6.479775590766686 -1.9266527284092279 C 6.772043005434041 -1.9266527284092279 7.05232929503296 -2.042805184118401 7.258925497038735 -2.249537501362533 C 7.594239110939046 -2.584827121231182 7.677538962577633 -3.096994545348932 7.465761445088637 -3.521264072824974 L 8.491800951246724 -4.547488584303323 Z M 6.766071323867957 -2.7423916745333132 C 6.690223579778982 -2.6665179587660894 6.587336373434755 -2.6238903651317953 6.480053098747075 -2.6238903651317953 C 6.3727698240593975 -2.6238903651317953 6.2698826177151705 -2.6665179587660894 6.194034873626196 -2.7423916745333132 C 6.118161157858972 -2.8182394186222854 6.075533564224676 -2.9211266249665124 6.075533564224676 -3.028409899654191 C 6.075533564224676 -3.1356931743418706 6.118161157858972 -3.2385803806860975 6.194034873626196 -3.3144281247750724 C 6.2698826177151705 -3.390301840542296 6.3727698240593975 -3.432929434176594 6.480053098747075 -3.432929434176594 C 6.587336373434755 -3.432929434176594 6.690223579778982 -3.390301840542296 6.766071323867957 -3.3144281247750724 C 6.842043243815663 -3.2386785797082442 6.884803995936124 -3.1358465025897955 6.884942784166685 -3.028563200365265 C 6.885081572397248 -2.921279898140737 6.842587022664499 -2.818337529558054 6.766811345148994 -2.742391674533316 Z"
                    fill="#a5497f" transform="matrix(1,0,0,1,0,0)" fill-rule="evenodd"></path>
            </g>
            <g clip-path="url(#SvgjsClipPath10008e788be9-b9b5-4da9-a4f6-8f6575467272)">
                <path
                    d=" M 4.961899440699247 -1.0164770418342899 C 6.129653022175958 0.15127653964242604 7.596190195871445 -0.14695203661557343 8.479035584148832 -1.030167435533481 C 9.227197099277449 -1.7783289506620994 9.55558154273771 -2.946082532138809 8.927303475137121 -3.9956177139698283 L 8.409288578411076 -3.4776028172437856 C 8.71047723979322 -2.824349031408187 8.557292834618519 -2.0954280695865384 7.9859964056577954 -1.523576624665039 C 7.237649885208919 -0.7750450988959052 6.2201206237827575 -0.7448892316936355 5.455123624510544 -1.5097012256455935 L 4.4290841183524545 -2.5359257371239385 C 4.640998796575754 -2.960204308000252 4.557769256773382 -3.4724720664078728 4.222433175622816 -3.8078373139066395 C 3.7920343155958576 -4.237941651158983 3.094532223105673 -4.237941651158983 2.6641333630787143 -3.807837313906643 C 2.2338247962886735 -3.3775230276543535 2.2338247962886735 -2.679851787614825 2.6641333630787143 -2.249537501362539 C 2.9994550405054414 -1.9141388128765833 3.5117278124588722 -1.8308339461065595 3.936044939861414 -2.042701553312641 L 4.962084446019504 -1.0166620471545533 Z M 3.1571725415697576 -2.7423916745333194 C 3.0812988258025342 -2.8182394186222908 3.0386712321682396 -2.9211266249665186 3.0386712321682396 -3.0284098996541973 C 3.0386712321682396 -3.1356931743418768 3.0812988258025342 -3.2385803806861038 3.1571725415697607 -3.3144281247750786 C 3.2330202856587293 -3.3903018405423024 3.3359074920029568 -3.4329294341765966 3.443190766690636 -3.4329294341765966 C 3.550474041378315 -3.4329294341765966 3.6533612477225423 -3.3903018405423024 3.729208991811516 -3.3144281247750786 C 3.8870065858400804 -3.156395934834576 3.8870065858400804 -2.9004238644738196 3.729208991811517 -2.7423916745333194 C 3.6533612477225454 -2.666517958766093 3.550474041378318 -2.623890365131798 3.443190766690639 -2.6238903651317953 C 3.3359074920029568 -2.6238903651317953 3.2330202856587293 -2.666517958766093 3.1571725415697576 -2.742391674533316 Z"
                    fill="#a5497e" transform="matrix(1,0,0,1,0,0)" fill-rule="evenodd"></path>
            </g>
            <g clip-path="url(#SvgjsClipPath10008e788be9-b9b5-4da9-a4f6-8f6575467272)">
                <path
                    d=" M 1.4310729035504677 -4.547303578983062 C 0.26350432739401297 -3.3795499975063468 0.5615478983317479 -1.9128278184906016 1.4449483025699161 -1.0301674355334747 C 2.1931098176985317 -0.28200592040485617 3.3606783938549865 0.04637852305540058 4.410398581006266 -0.5818995445451858 L 3.892383684280221 -1.099914441271232 C 3.2389448931243683 -0.7987257798890912 2.510023931302719 -0.9519101850637908 1.9381724863812135 -1.5232066140245175 C 1.1898259659323371 -2.271553134473394 1.1594850934098129 -3.2890823958995554 1.9244820926820254 -4.053894389851507 L 2.9505215988401168 -5.0799338960095985 C 3.3748296607611143 -4.868006699941076 3.8871389777217917 -4.951317509593736 4.222433175622816 -5.286769844059497 C 4.652741742412857 -5.71708413031178 4.652741742412857 -6.414755370351312 4.222433175622816 -6.845069656603597 C 3.7921188893705318 -7.275378223393638 3.0944476493310002 -7.275378223393638 2.6641333630787174 -6.845069656603597 C 2.3288509043304955 -6.509676955901758 2.2456272977183307 -5.997445715562778 2.4574824203490766 -5.573158079820896 L 1.431257908870728 -4.547118573662808 Z M 3.1571725415697545 -6.352030478112551 C 3.2330202856587293 -6.427904193879774 3.3359074920029568 -6.470531787514066 3.443190766690636 -6.470531787514066 C 3.550474041378315 -6.470531787514066 3.6533612477225423 -6.427904193879774 3.729208991811516 -6.352030478112551 C 3.8870065858400773 -6.19399828817205 3.8870065858400773 -5.9380262178112915 3.729208991811516 -5.779994027870791 C 3.6533612477225423 -5.7041203121035675 3.550474041378315 -5.661492718469271 3.443190766690636 -5.661492718469271 C 3.3359074920029568 -5.661492718469271 3.2330202856587293 -5.7041203121035675 3.1571725415697576 -5.779994027870789 C 3.081298825802528 -5.8558417719597635 3.0386712321682334 -5.958728978303993 3.0386712321682334 -6.066012252991673 C 3.0386712321682334 -6.173295527679349 3.081298825802528 -6.276182734023579 3.1571725415697545 -6.352030478112554 Z"
                    fill="#a5497e" transform="matrix(1,0,0,1,0,0)" fill-rule="evenodd"></path>
            </g>
            <g clip-path="url(#SvgjsClipPath10008e788be9-b9b5-4da9-a4f6-8f6575467272)">
                <path
                    d=" M 4.961899440699247 -8.07794511081158 C 3.7941458592225326 -9.245698692288293 2.3276086855270455 -8.947470116030297 1.4449483025699161 -8.064254717112393 C 0.6967867874413002 -7.316093201983773 0.3682173386607773 -6.148339620507061 0.9964954062613667 -5.098804438676042 L 1.514510302987413 -5.616819335402088 C 1.2135066469255296 -6.27025812655794 1.3665060467799715 -6.998994083059332 1.9378024757406926 -7.571030533301092 C 2.6863340015098296 -8.319377053749967 3.70367825761573 -8.349717926272495 4.468675256887943 -7.58472092700028 L 5.494714763046033 -6.558681420842191 C 5.282859640415286 -6.134393785100309 5.3660832470274515 -5.622162544761329 5.70136570577567 -5.28676984405949 C 6.131679992027956 -4.8564612772694495 6.829351232067486 -4.8564612772694495 7.25966551831977 -5.28676984405949 C 7.689974085109811 -5.717084130311777 7.689974085109811 -6.414755370351308 7.25966551831977 -6.845069656603592 C 6.924272817617934 -7.18035211535181 6.412041577278953 -7.263575721963978 5.987753941537071 -7.0517205993332315 L 4.961714435378983 -8.07776010549132 Z M 6.766811345148995 -6.352030478112551 C 6.842685060916219 -6.2761827340235765 6.885312654550513 -6.173295527679349 6.885312654550513 -6.066012252991673 C 6.885312654550513 -5.958728978303993 6.842685060916219 -5.855841771959766 6.766811345148995 -5.779994027870791 C 6.69096360106002 -5.7041203121035675 6.588076394715793 -5.661492718469271 6.480793120028114 -5.661492718469271 C 6.373509845340435 -5.661492718469271 6.270622638996207 -5.7041203121035675 6.194774894907234 -5.779994027870789 C 6.11890117914001 -5.855841771959766 6.076273585505715 -5.958728978303993 6.076273585505715 -6.066012252991673 C 6.076273585505715 -6.173295527679349 6.11890117914001 -6.2761827340235765 6.194774894907234 -6.352030478112554 C 6.270622638996207 -6.427904193879774 6.3735098453404335 -6.470531787514066 6.480793120028112 -6.470531787514066 C 6.58807639471579 -6.470531787514069 6.690963601060019 -6.427904193879774 6.766811345148993 -6.352030478112551 Z"
                    fill="#a5497e" transform="matrix(1,0,0,1,0,0)" fill-rule="evenodd"></path>
            </g>
        </g>
    </g>
    <defs>
        <clipPath id="SvgjsClipPath1002">
            <path
                d=" M 0.6647808670364412 -8.844422152645867 h 8.594422152645867 v 8.594422152645867 h -8.594422152645867 Z">
            </path>
        </clipPath>
        <clipPath id="SvgjsClipPath10008e788be9-b9b5-4da9-a4f6-8f6575467272">
            <path
                d=" M 0.6647808670364412 -8.844422152645867 L 9.259203019682309 -8.844422152645867 L 9.259203019682309 -0.25 L 0.6647808670364412 -0.25 Z">
            </path>
        </clipPath>
    </defs>
</svg>