<svg id="visual" viewBox="0 0 900 200" width="900" height="200" xmlns="http://www.w3.org/2000/svg" xmlns:xlink="http://www.w3.org/1999/xlink" version="1.1"><path d="M0 13L12.5 15C25 17 50 21 75 27.3C100 33.7 125 42.3 150 43C175 43.7 200 36.3 225 30.7C250 25 275 21 300 23.3C325 25.7 350 34.3 375 36C400 37.7 425 32.3 450 28.3C475 24.3 500 21.7 525 25C550 28.3 575 37.7 600 41.7C625 45.7 650 44.3 675 42C700 39.7 725 36.3 750 32.7C775 29 800 25 825 21.3C850 17.7 875 14.3 887.5 12.7L900 11L900 0L887.5 0C875 0 850 0 825 0C800 0 775 0 750 0C725 0 700 0 675 0C650 0 625 0 600 0C575 0 550 0 525 0C500 0 475 0 450 0C425 0 400 0 375 0C350 0 325 0 300 0C275 0 250 0 225 0C200 0 175 0 150 0C125 0 100 0 75 0C50 0 25 0 12.5 0L0 0Z" fill="#32363a"></path><path d="M0 53L12.5 51.3C25 49.7 50 46.3 75 48.7C100 51 125 59 150 63.3C175 67.7 200 68.3 225 66.3C250 64.3 275 59.7 300 60.3C325 61 350 67 375 66.3C400 65.7 425 58.3 450 51C475 43.7 500 36.3 525 39.7C550 43 575 57 600 66C625 75 650 79 675 77C700 75 725 67 750 59C775 51 800 43 825 39C850 35 875 35 887.5 35L900 35L900 9L887.5 10.7C875 12.3 850 15.7 825 19.3C800 23 775 27 750 30.7C725 34.3 700 37.7 675 40C650 42.3 625 43.7 600 39.7C575 35.7 550 26.3 525 23C500 19.7 475 22.3 450 26.3C425 30.3 400 35.7 375 34C350 32.3 325 23.7 300 21.3C275 19 250 23 225 28.7C200 34.3 175 41.7 150 41C125 40.3 100 31.7 75 25.3C50 19 25 15 12.5 13L0 11Z" fill="#00807d"></path><path d="M0 117L12.5 115C25 113 50 109 75 109C100 109 125 113 150 112.7C175 112.3 200 107.7 225 107.7C250 107.7 275 112.3 300 111C325 109.7 350 102.3 375 97.3C400 92.3 425 89.7 450 83.7C475 77.7 500 68.3 525 75C550 81.7 575 104.3 600 119C625 133.7 650 140.3 675 137.3C700 134.3 725 121.7 750 113.7C775 105.7 800 102.3 825 98.7C850 95 875 91 887.5 89L900 87L900 33L887.5 33C875 33 850 33 825 37C800 41 775 49 750 57C725 65 700 73 675 75C650 77 625 73 600 64C575 55 550 41 525 37.7C500 34.3 475 41.7 450 49C425 56.3 400 63.7 375 64.3C350 65 325 59 300 58.3C275 57.7 250 62.3 225 64.3C200 66.3 175 65.7 150 61.3C125 57 100 49 75 46.7C50 44.3 25 47.7 12.5 49.3L0 51Z" fill="#04aa5c"></path><path d="M0 167L12.5 162.7C25 158.3 50 149.7 75 150.3C100 151 125 161 150 160C175 159 200 147 225 142.3C250 137.7 275 140.3 300 138.3C325 136.3 350 129.7 375 129.3C400 129 425 135 450 127.7C475 120.3 500 99.7 525 99.3C550 99 575 119 600 135.7C625 152.3 650 165.7 675 168.3C700 171 725 163 750 154.7C775 146.3 800 137.7 825 134C850 130.3 875 131.7 887.5 132.3L900 133L900 85L887.5 87C875 89 850 93 825 96.7C800 100.3 775 103.7 750 111.7C725 119.7 700 132.3 675 135.3C650 138.3 625 131.7 600 117C575 102.3 550 79.7 525 73C500 66.3 475 75.7 450 81.7C425 87.7 400 90.3 375 95.3C350 100.3 325 107.7 300 109C275 110.3 250 105.7 225 105.7C200 105.7 175 110.3 150 110.7C125 111 100 107 75 107C50 107 25 111 12.5 113L0 115Z" fill="#00807d"></path><path d="M0 201L12.5 201C25 201 50 201 75 201C100 201 125 201 150 201C175 201 200 201 225 201C250 201 275 201 300 201C325 201 350 201 375 201C400 201 425 201 450 201C475 201 500 201 525 201C550 201 575 201 600 201C625 201 650 201 675 201C700 201 725 201 750 201C775 201 800 201 825 201C850 201 875 201 887.5 201L900 201L900 131L887.5 130.3C875 129.7 850 128.3 825 132C800 135.7 775 144.3 750 152.7C725 161 700 169 675 166.3C650 163.7 625 150.3 600 133.7C575 117 550 97 525 97.3C500 97.7 475 118.3 450 125.7C425 133 400 127 375 127.3C350 127.7 325 134.3 300 136.3C275 138.3 250 135.7 225 140.3C200 145 175 157 150 158C125 159 100 149 75 148.3C50 147.7 25 156.3 12.5 160.7L0 165Z" fill="#32363a"></path></svg>