<svg id="visual" viewBox="0 0 900 100" width="900" height="100" xmlns="http://www.w3.org/2000/svg" xmlns:xlink="http://www.w3.org/1999/xlink" version="1.1"><path d="M0 12L9.3 12.7C18.7 13.3 37.3 14.7 56.2 13.2C75 11.7 94 7.3 112.8 6.5C131.7 5.7 150.3 8.3 169 7.8C187.7 7.3 206.3 3.7 225 4.5C243.7 5.3 262.3 10.7 281.2 11.7C300 12.7 319 9.3 337.8 8.8C356.7 8.3 375.3 10.7 394 10.7C412.7 10.7 431.3 8.3 450 6.7C468.7 5 487.3 4 506.2 3.8C525 3.7 544 4.3 562.8 5.7C581.7 7 600.3 9 619 8.5C637.7 8 656.3 5 675 3.2C693.7 1.3 712.3 0.7 731.2 1.8C750 3 769 6 787.8 8.5C806.7 11 825.3 13 844 12.7C862.7 12.3 881.3 9.7 890.7 8.3L900 7L900 0L890.7 0C881.3 0 862.7 0 844 0C825.3 0 806.7 0 787.8 0C769 0 750 0 731.2 0C712.3 0 693.7 0 675 0C656.3 0 637.7 0 619 0C600.3 0 581.7 0 562.8 0C544 0 525 0 506.2 0C487.3 0 468.7 0 450 0C431.3 0 412.7 0 394 0C375.3 0 356.7 0 337.8 0C319 0 300 0 281.2 0C262.3 0 243.7 0 225 0C206.3 0 187.7 0 169 0C150.3 0 131.7 0 112.8 0C94 0 75 0 56.2 0C37.3 0 18.7 0 9.3 0L0 0Z" fill="#32363a"></path><path d="M0 13L9.3 15.5C18.7 18 37.3 23 56.2 22.2C75 21.3 94 14.7 112.8 12.2C131.7 9.7 150.3 11.3 169 13.8C187.7 16.3 206.3 19.7 225 23.5C243.7 27.3 262.3 31.7 281.2 28.8C300 26 319 16 337.8 13C356.7 10 375.3 14 394 16.5C412.7 19 431.3 20 450 18.3C468.7 16.7 487.3 12.3 506.2 10C525 7.7 544 7.3 562.8 11.3C581.7 15.3 600.3 23.7 619 23.7C637.7 23.7 656.3 15.3 675 14.2C693.7 13 712.3 19 731.2 23C750 27 769 29 787.8 30.7C806.7 32.3 825.3 33.7 844 30C862.7 26.3 881.3 17.7 890.7 13.3L900 9L900 5L890.7 6.3C881.3 7.7 862.7 10.3 844 10.7C825.3 11 806.7 9 787.8 6.8C769 4.7 750 2.3 731.2 1.2C712.3 0 693.7 0 675 1.5C656.3 3 637.7 6 619 6.5C600.3 7 581.7 5 562.8 3.7C544 2.3 525 1.7 506.2 1.8C487.3 2 468.7 3 450 4.7C431.3 6.3 412.7 8.7 394 8.7C375.3 8.7 356.7 6.3 337.8 6.8C319 7.3 300 10.7 281.2 10C262.3 9.3 243.7 4.7 225 3.8C206.3 3 187.7 6 169 6.2C150.3 6.3 131.7 3.7 112.8 4.5C94 5.3 75 9.7 56.2 11.2C37.3 12.7 18.7 11.3 9.3 10.7L0 10Z" fill="#186671"></path><path d="M0 20L9.3 24.2C18.7 28.3 37.3 36.7 56.2 36.8C75 37 94 29 112.8 26.3C131.7 23.7 150.3 26.3 169 27C187.7 27.7 206.3 26.3 225 30.2C243.7 34 262.3 43 281.2 43.5C300 44 319 36 337.8 32.7C356.7 29.3 375.3 30.7 394 32.2C412.7 33.7 431.3 35.3 450 33.7C468.7 32 487.3 27 506.2 22.5C525 18 544 14 562.8 18.8C581.7 23.7 600.3 37.3 619 40.3C637.7 43.3 656.3 35.7 675 31.3C693.7 27 712.3 26 731.2 27.7C750 29.3 769 33.7 787.8 36.7C806.7 39.7 825.3 41.3 844 38C862.7 34.7 881.3 26.3 890.7 22.2L900 18L900 7L890.7 11.3C881.3 15.7 862.7 24.3 844 28C825.3 31.7 806.7 30.3 787.8 28.7C769 27 750 25 731.2 21C712.3 17 693.7 11 675 12.2C656.3 13.3 637.7 21.7 619 21.7C600.3 21.7 581.7 13.3 562.8 9.3C544 5.3 525 5.7 506.2 8C487.3 10.3 468.7 14.7 450 16.3C431.3 18 412.7 17 394 14.5C375.3 12 356.7 8 337.8 11C319 14 300 24 281.2 26.8C262.3 29.7 243.7 25.3 225 21.5C206.3 17.7 187.7 14.3 169 11.8C150.3 9.3 131.7 7.7 112.8 10.2C94 12.7 75 19.3 56.2 20.2C37.3 21 18.7 16 9.3 13.5L0 11Z" fill="#009873"></path><path d="M0 35L9.3 41.5C18.7 48 37.3 61 56.2 66.5C75 72 94 70 112.8 63.5C131.7 57 150.3 46 169 46.8C187.7 47.7 206.3 60.3 225 66.8C243.7 73.3 262.3 73.7 281.2 70.2C300 66.7 319 59.3 337.8 56.3C356.7 53.3 375.3 54.7 394 52.5C412.7 50.3 431.3 44.7 450 39.2C468.7 33.7 487.3 28.3 506.2 30.3C525 32.3 544 41.7 562.8 50C581.7 58.3 600.3 65.7 619 63.8C637.7 62 656.3 51 675 48C693.7 45 712.3 50 731.2 52.8C750 55.7 769 56.3 787.8 58.8C806.7 61.3 825.3 65.7 844 63.2C862.7 60.7 881.3 51.3 890.7 46.7L900 42L900 16L890.7 20.2C881.3 24.3 862.7 32.7 844 36C825.3 39.3 806.7 37.7 787.8 34.7C769 31.7 750 27.3 731.2 25.7C712.3 24 693.7 25 675 29.3C656.3 33.7 637.7 41.3 619 38.3C600.3 35.3 581.7 21.7 562.8 16.8C544 12 525 16 506.2 20.5C487.3 25 468.7 30 450 31.7C431.3 33.3 412.7 31.7 394 30.2C375.3 28.7 356.7 27.3 337.8 30.7C319 34 300 42 281.2 41.5C262.3 41 243.7 32 225 28.2C206.3 24.3 187.7 25.7 169 25C150.3 24.3 131.7 21.7 112.8 24.3C94 27 75 35 56.2 34.8C37.3 34.7 18.7 26.3 9.3 22.2L0 18Z" fill="#04aa5c"></path><path d="M0 70L9.3 70.8C18.7 71.7 37.3 73.3 56.2 73.3C75 73.3 94 71.7 112.8 71.8C131.7 72 150.3 74 169 75.7C187.7 77.3 206.3 78.7 225 80.7C243.7 82.7 262.3 85.3 281.2 85.5C300 85.7 319 83.3 337.8 81.3C356.7 79.3 375.3 77.7 394 80.5C412.7 83.3 431.3 90.7 450 92.7C468.7 94.7 487.3 91.3 506.2 84.8C525 78.3 544 68.7 562.8 67.5C581.7 66.3 600.3 73.7 619 74.7C637.7 75.7 656.3 70.3 675 68C693.7 65.7 712.3 66.3 731.2 68.7C750 71 769 75 787.8 78.2C806.7 81.3 825.3 83.7 844 83.7C862.7 83.7 881.3 81.3 890.7 80.2L900 79L900 40L890.7 44.7C881.3 49.3 862.7 58.7 844 61.2C825.3 63.7 806.7 59.3 787.8 56.8C769 54.3 750 53.7 731.2 50.8C712.3 48 693.7 43 675 46C656.3 49 637.7 60 619 61.8C600.3 63.7 581.7 56.3 562.8 48C544 39.7 525 30.3 506.2 28.3C487.3 26.3 468.7 31.7 450 37.2C431.3 42.7 412.7 48.3 394 50.5C375.3 52.7 356.7 51.3 337.8 54.3C319 57.3 300 64.7 281.2 68.2C262.3 71.7 243.7 71.3 225 64.8C206.3 58.3 187.7 45.7 169 44.8C150.3 44 131.7 55 112.8 61.5C94 68 75 70 56.2 64.5C37.3 59 18.7 46 9.3 39.5L0 33Z" fill="#009873"></path><path d="M0 84L9.3 84.7C18.7 85.3 37.3 86.7 56.2 85.8C75 85 94 82 112.8 82.3C131.7 82.7 150.3 86.3 169 88C187.7 89.7 206.3 89.3 225 89.7C243.7 90 262.3 91 281.2 90.2C300 89.3 319 86.7 337.8 86.2C356.7 85.7 375.3 87.3 394 89.7C412.7 92 431.3 95 450 96.8C468.7 98.7 487.3 99.3 506.2 95.3C525 91.3 544 82.7 562.8 80.2C581.7 77.7 600.3 81.3 619 80.7C637.7 80 656.3 75 675 73C693.7 71 712.3 72 731.2 74.7C750 77.3 769 81.7 787.8 86C806.7 90.3 825.3 94.7 844 96C862.7 97.3 881.3 95.7 890.7 94.8L900 94L900 77L890.7 78.2C881.3 79.3 862.7 81.7 844 81.7C825.3 81.7 806.7 79.3 787.8 76.2C769 73 750 69 731.2 66.7C712.3 64.3 693.7 63.7 675 66C656.3 68.3 637.7 73.7 619 72.7C600.3 71.7 581.7 64.3 562.8 65.5C544 66.7 525 76.3 506.2 82.8C487.3 89.3 468.7 92.7 450 90.7C431.3 88.7 412.7 81.3 394 78.5C375.3 75.7 356.7 77.3 337.8 79.3C319 81.3 300 83.7 281.2 83.5C262.3 83.3 243.7 80.7 225 78.7C206.3 76.7 187.7 75.3 169 73.7C150.3 72 131.7 70 112.8 69.8C94 69.7 75 71.3 56.2 71.3C37.3 71.3 18.7 69.7 9.3 68.8L0 68Z" fill="#186671"></path><path d="M0 101L9.3 101C18.7 101 37.3 101 56.2 101C75 101 94 101 112.8 101C131.7 101 150.3 101 169 101C187.7 101 206.3 101 225 101C243.7 101 262.3 101 281.2 101C300 101 319 101 337.8 101C356.7 101 375.3 101 394 101C412.7 101 431.3 101 450 101C468.7 101 487.3 101 506.2 101C525 101 544 101 562.8 101C581.7 101 600.3 101 619 101C637.7 101 656.3 101 675 101C693.7 101 712.3 101 731.2 101C750 101 769 101 787.8 101C806.7 101 825.3 101 844 101C862.7 101 881.3 101 890.7 101L900 101L900 92L890.7 92.8C881.3 93.7 862.7 95.3 844 94C825.3 92.7 806.7 88.3 787.8 84C769 79.7 750 75.3 731.2 72.7C712.3 70 693.7 69 675 71C656.3 73 637.7 78 619 78.7C600.3 79.3 581.7 75.7 562.8 78.2C544 80.7 525 89.3 506.2 93.3C487.3 97.3 468.7 96.7 450 94.8C431.3 93 412.7 90 394 87.7C375.3 85.3 356.7 83.7 337.8 84.2C319 84.7 300 87.3 281.2 88.2C262.3 89 243.7 88 225 87.7C206.3 87.3 187.7 87.7 169 86C150.3 84.3 131.7 80.7 112.8 80.3C94 80 75 83 56.2 83.8C37.3 84.7 18.7 83.3 9.3 82.7L0 82Z" fill="#32363a"></path></svg>